{
  "accessors": [
    {
      "bufferView": 1,
      "componentType": 5126,
      "count": 65532,
      "max": [
        8.2291278839111328,
        2.7369849681854248,
        8.3657608032226562
      ],
      "min": [
        0.091523170471191406,
        0.003376007080078125,
        1.7532391548156738
      ],
      "type": "VEC3"
    },
    {
      "bufferView": 1,
      "byteOffset": 786384,
      "componentType": 5126,
      "count": 65532,
      "max": [
        0.99998879432678223,
        0.99996519088745117,
        0.98224461078643799
      ],
      "min": [
        -0.99785137176513672,
        -0.99998354911804199,
        -0.99662458896636963
      ],
      "type": "VEC3"
    },
    {
      "bufferView": 0,
      "componentType": 5125,
      "count": 69174,
      "max": [
        65531
      ],
      "min": [
        0
      ],
      "type": "SCALAR"
    },
    {
      "bufferView": 1,
      "byteOffset": 1572768,
      "componentType": 5126,
      "count": 65534,
      "max": [
        8.2327003479003906,
        2.7132301330566406,
        7.654850959777832
      ],
      "min": [
        0.058060169219970703,
        0,
        1.7507450580596924
      ],
      "type": "VEC3"
    },
    {
      "bufferView": 1,
      "byteOffset": 2359176,
      "componentType": 5126,
      "count": 65534,
      "max": [
        0.99992263317108154,
        0.99950391054153442,
        0.60488599538803101
      ],
      "min": [
        -0.99988269805908203,
        -0.99998307228088379,
        -0.96651160717010498
      ],
      "type": "VEC3"
    },
    {
      "bufferView": 0,
      "byteOffset": 276696,
      "componentType": 5125,
      "count": 68289,
      "max": [
        65533
      ],
      "min": [
        0
      ],
      "type": "SCALAR"
    },
    {
      "bufferView": 1,
      "byteOffset": 3145584,
      "componentType": 5126,
      "count": 65534,
      "max": [
        8.2903518676757812,
        3.3370838165283203,
        8.6546916961669922
      ],
      "min": [
        0,
        0,
        0
      ],
      "type": "VEC3"
    },
    {
      "bufferView": 1,
      "byteOffset": 3931992,
      "componentType": 5126,
      "count": 65534,
      "max": [
        1,
        0.99999487400054932,
        1
      ],
      "min": [
        -0.99999547004699707,
        -1,
        -1
      ],
      "type": "VEC3"
    },
    {
      "bufferView": 0,
      "byteOffset": 549852,
      "componentType": 5125,
      "count": 68223,
      "max": [
        65533
      ],
      "min": [
        0
      ],
      "type": "SCALAR"
    },
    {
      "bufferView": 1,
      "byteOffset": 4718400,
      "componentType": 5126,
      "count": 65533,
      "max": [
        8.2270650863647461,
        3.338238000869751,
        8.7580146789550781
      ],
      "min": [
        0.073400020599365234,
        0,
        9.5367431640625e-07
      ],
      "type": "VEC3"
    },
    {
      "bufferView": 1,
      "byteOffset": 5504796,
      "componentType": 5126,
      "count": 65533,
      "max": [
        0.9999992847442627,
        0.99999988079071045,
        0.99777215719223022
      ],
      "min": [
        -0.99999737739562988,
        -0.99999618530273438,
        -0.99777466058731079
      ],
      "type": "VEC3"
    },
    {
      "bufferView": 0,
      "byteOffset": 822744,
      "componentType": 5125,
      "count": 65910,
      "max": [
        65532
      ],
      "min": [
        0
      ],
      "type": "SCALAR"
    },
    {
      "bufferView": 1,
      "byteOffset": 6291192,
      "componentType": 5126,
      "count": 65533,
      "max": [
        8.2769355773925781,
        3.338238000869751,
        8.7285881042480469
      ],
      "min": [
        0.060875892639160156,
        0.0019140243530273438,
        0
      ],
      "type": "VEC3"
    },
    {
      "bufferView": 1,
      "byteOffset": 7077588,
      "componentType": 5126,
      "count": 65533,
      "max": [
        0.99999773502349854,
        0.99999880790710449,
        0.99476391077041626
      ],
      "min": [
        -0.99997639656066895,
        -0.99999654293060303,
        -0.97926545143127441
      ],
      "type": "VEC3"
    },
    {
      "bufferView": 0,
      "byteOffset": 1086384,
      "componentType": 5125,
      "count": 66138,
      "max": [
        65532
      ],
      "min": [
        0
      ],
      "type": "SCALAR"
    },
    {
      "bufferView": 1,
      "byteOffset": 7863984,
      "componentType": 5126,
      "count": 65533,
      "max": [
        8.2263212203979492,
        3.3378090858459473,
        8.463170051574707
      ],
      "min": [
        0.012703895568847656,
        0.027670979499816895,
        9.5367431640625e-07
      ],
      "type": "VEC3"
    },
    {
      "bufferView": 1,
      "byteOffset": 8650380,
      "componentType": 5126,
      "count": 65533,
      "max": [
        0.99999785423278809,
        0.99999797344207764,
        0.99392014741897583
      ],
      "min": [
        -0.99998462200164795,
        -0.99999606609344482,
        -0.9976191520690918
      ],
      "type": "VEC3"
    },
    {
      "bufferView": 0,
      "byteOffset": 1350936,
      "componentType": 5125,
      "count": 65907,
      "max": [
        65532
      ],
      "min": [
        0
      ],
      "type": "SCALAR"
    },
    {
      "bufferView": 1,
      "byteOffset": 9436776,
      "componentType": 5126,
      "count": 65533,
      "max": [
        8.1856765747070312,
        3.4255139827728271,
        8.9736976623535156
      ],
      "min": [
        0.25023794174194336,
        0.050261974334716797,
        0.10452032089233398
      ],
      "type": "VEC3"
    },
    {
      "bufferView": 1,
      "byteOffset": 10223172,
      "componentType": 5126,
      "count": 65533,
      "max": [
        0.99993753433227539,
        0.99997317790985107,
        0.99988901615142822
      ],
      "min": [
        -0.99968415498733521,
        -0.99999773502349854,
        -0.99937951564788818
      ],
      "type": "VEC3"
    },
    {
      "bufferView": 0,
      "byteOffset": 1614564,
      "componentType": 5125,
      "count": 73629,
      "max": [
        65532
      ],
      "min": [
        0
      ],
      "type": "SCALAR"
    },
    {
      "bufferView": 1,
      "byteOffset": 11009568,
      "componentType": 5126,
      "count": 65533,
      "max": [
        8.2806434631347656,
        3.416327953338623,
        8.9743366241455078
      ],
      "min": [
        0.0011820793151855469,
        0.035593986511230469,
        0
      ],
      "type": "VEC3"
    },
    {
      "bufferView": 1,
      "byteOffset": 11795964,
      "componentType": 5126,
      "count": 65533,
      "max": [
        0.99999332427978516,
        0.99999761581420898,
        0.99923819303512573
      ],
      "min": [
        -0.99980765581130981,
        -0.99999821186065674,
        -0.99778193235397339
      ],
      "type": "VEC3"
    },
    {
      "bufferView": 0,
      "byteOffset": 1909080,
      "componentType": 5125,
      "count": 71757,
      "max": [
        65532
      ],
      "min": [
        0
      ],
      "type": "SCALAR"
    },
    {
      "bufferView": 1,
      "byteOffset": 12582360,
      "componentType": 5126,
      "count": 65532,
      "max": [
        8.2833032608032227,
        3.4354369640350342,
        8.9825897216796875
      ],
      "min": [
        0.0094418525695800781,
        0.186492919921875,
        9.5367431640625e-07
      ],
      "type": "VEC3"
    },
    {
      "bufferView": 1,
      "byteOffset": 13368744,
      "componentType": 5126,
      "count": 65532,
      "max": [
        0.99993991851806641,
        0.99998486042022705,
        0.99999821186065674
      ],
      "min": [
        -0.99993896484375,
        -0.9999774694442749,
        -0.9993668794631958
      ],
      "type": "VEC3"
    },
    {
      "bufferView": 0,
      "byteOffset": 2196108,
      "componentType": 5125,
      "count": 67695,
      "max": [
        65531
      ],
      "min": [
        0
      ],
      "type": "SCALAR"
    },
    {
      "bufferView": 1,
      "byteOffset": 14155128,
      "componentType": 5126,
      "count": 65532,
      "max": [
        8.284027099609375,
        3.4354369640350342,
        8.9810752868652344
      ],
      "min": [
        0.0079379081726074219,
        0.13045799732208252,
        0
      ],
      "type": "VEC3"
    },
    {
      "bufferView": 1,
      "byteOffset": 14941512,
      "componentType": 5126,
      "count": 65532,
      "max": [
        0.99999165534973145,
        0.99999773502349854,
        0.99945372343063354
      ],
      "min": [
        -0.99997806549072266,
        -0.99999797344207764,
        -0.99935662746429443
      ],
      "type": "VEC3"
    },
    {
      "bufferView": 0,
      "byteOffset": 2466888,
      "componentType": 5125,
      "count": 68466,
      "max": [
        65531
      ],
      "min": [
        0
      ],
      "type": "SCALAR"
    },
    {
      "bufferView": 1,
      "byteOffset": 15727896,
      "componentType": 5126,
      "count": 65533,
      "max": [
        8.2898063659667969,
        3.4275598526000977,
        8.9721145629882812
      ],
      "min": [
        0.00029087066650390625,
        0.035593986511230469,
        9.5367431640625e-07
      ],
      "type": "VEC3"
    },
    {
      "bufferView": 1,
      "byteOffset": 16514292,
      "componentType": 5126,
      "count": 65533,
      "max": [
        0.99987316131591797,
        0.99999356269836426,
        0.9974101185798645
      ],
      "min": [
        -0.99998700618743896,
        -0.99999797344207764,
        -0.9964289665222168
      ],
      "type": "VEC3"
    },
    {
      "bufferView": 0,
      "byteOffset": 2740752,
      "componentType": 5125,
      "count": 72498,
      "max": [
        65532
      ],
      "min": [
        0
      ],
      "type": "SCALAR"
    },
    {
      "bufferView": 1,
      "byteOffset": 17300688,
      "componentType": 5126,
      "count": 16655,
      "max": [
        8.2902774810791016,
        3.4286508560180664,
        8.9713306427001953
      ],
      "min": [
        0.0081090927124023438,
        0.14328300952911377,
        9.5367431640625e-07
      ],
      "type": "VEC3"
    },
    {
      "bufferView": 1,
      "byteOffset": 17500548,
      "componentType": 5126,
      "count": 16655,
      "max": [
        0.99997985363006592,
        0.99997866153717041,
        0.99740058183670044
      ],
      "min": [
        -0.99998116493225098,
        -0.99999833106994629,
        -0.99742543697357178
      ],
      "type": "VEC3"
    },
    {
      "bufferView": 0,
      "byteOffset": 3030744,
      "componentType": 5125,
      "count": 17988,
      "max": [
        16654
      ],
      "min": [
        0
      ],
      "type": "SCALAR"
    }
  ],
  "asset": {
    "extras": {
      "author": "aunpyz (https://sketchfab.com/aunpyz)",
      "license": "CC-BY-4.0 (http://creativecommons.org/licenses/by/4.0/)",
      "source": "https://sketchfab.com/models/7e2225ef46a94199b43ed9191ccc0084",
      "title": "SculptJanuary#27 Clothing"
    },
    "generator": "Sketchfab-3.18.5",
    "version": "2.0"
  },
  "bufferViews": [
    {
      "buffer": 0,
      "byteLength": 3102696,
      "byteOffset": 0,
      "name": "floatBufferViews",
      "target": 34963
    },
    {
      "buffer": 0,
      "byteLength": 17700408,
      "byteOffset": 3102696,
      "byteStride": 12,
      "name": "floatBufferViews",
      "target": 34962
    }
  ],
  "buffers": [
    {
      "byteLength": 20803104,
      "uri": "scene.bin"
    }
  ],
  "materials": [
    {
      "doubleSided": true,
      "emissiveFactor": [
        0,
        0,
        0
      ],
      "name": "None",
      "pbrMetallicRoughness": {
        "baseColorFactor": [
          0.80000000000000004,
          0.80000000000000004,
          0.80000000000000004,
          1
        ],
        "metallicFactor": 0,
        "roughnessFactor": 0.59999999999999998
      }
    }
  ],
  "meshes": [
    {
      "primitives": [
        {
          "attributes": {
            "NORMAL": 1,
            "POSITION": 0
          },
          "indices": 2,
          "material": 0,
          "mode": 4
        }
      ]
    },
    {
      "primitives": [
        {
          "attributes": {
            "NORMAL": 4,
            "POSITION": 3
          },
          "indices": 5,
          "material": 0,
          "mode": 4
        }
      ]
    },
    {
      "primitives": [
        {
          "attributes": {
            "NORMAL": 7,
            "POSITION": 6
          },
          "indices": 8,
          "material": 0,
          "mode": 4
        }
      ]
    },
    {
      "primitives": [
        {
          "attributes": {
            "NORMAL": 10,
            "POSITION": 9
          },
          "indices": 11,
          "material": 0,
          "mode": 4
        }
      ]
    },
    {
      "primitives": [
        {
          "attributes": {
            "NORMAL": 13,
            "POSITION": 12
          },
          "indices": 14,
          "material": 0,
          "mode": 4
        }
      ]
    },
    {
      "primitives": [
        {
          "attributes": {
            "NORMAL": 16,
            "POSITION": 15
          },
          "indices": 17,
          "material": 0,
          "mode": 4
        }
      ]
    },
    {
      "primitives": [
        {
          "attributes": {
            "NORMAL": 19,
            "POSITION": 18
          },
          "indices": 20,
          "material": 0,
          "mode": 4
        }
      ]
    },
    {
      "primitives": [
        {
          "attributes": {
            "NORMAL": 22,
            "POSITION": 21
          },
          "indices": 23,
          "material": 0,
          "mode": 4
        }
      ]
    },
    {
      "primitives": [
        {
          "attributes": {
            "NORMAL": 25,
            "POSITION": 24
          },
          "indices": 26,
          "material": 0,
          "mode": 4
        }
      ]
    },
    {
      "primitives": [
        {
          "attributes": {
            "NORMAL": 28,
            "POSITION": 27
          },
          "indices": 29,
          "material": 0,
          "mode": 4
        }
      ]
    },
    {
      "primitives": [
        {
          "attributes": {
            "NORMAL": 31,
            "POSITION": 30
          },
          "indices": 32,
          "material": 0,
          "mode": 4
        }
      ]
    },
    {
      "primitives": [
        {
          "attributes": {
            "NORMAL": 34,
            "POSITION": 33
          },
          "indices": 35,
          "material": 0,
          "mode": 4
        }
      ]
    }
  ],
  "nodes": [
    {
      "children": [
        1
      ],
      "name": "RootNode (gltf orientation matrix)",
      "rotation": [
        -0.70710678118654746,
        -0,
        -0,
        0.70710678118654757
      ]
    },
    {
      "children": [
        2
      ],
      "name": "RootNode (model correction matrix)"
    },
    {
      "children": [
        3
      ],
      "matrix": [
        1,
        0,
        0,
        0,
        0,
        1,
        0,
        0,
        0,
        0,
        1,
        0,
        -4.1448960304260254,
        -1.4503309726715088,
        -4.4439101219177246,
        1
      ],
      "name": "clothing.obj.cleaner.gles"
    },
    {
      "children": [
        4,
        5,
        6,
        7,
        8,
        9,
        10,
        11,
        12,
        13,
        14,
        15
      ],
      "name": ""
    },
    {
      "mesh": 0,
      "name": ""
    },
    {
      "mesh": 1,
      "name": ""
    },
    {
      "mesh": 2,
      "name": ""
    },
    {
      "mesh": 3,
      "name": ""
    },
    {
      "mesh": 4,
      "name": ""
    },
    {
      "mesh": 5,
      "name": ""
    },
    {
      "mesh": 6,
      "name": ""
    },
    {
      "mesh": 7,
      "name": ""
    },
    {
      "mesh": 8,
      "name": ""
    },
    {
      "mesh": 9,
      "name": ""
    },
    {
      "mesh": 10,
      "name": ""
    },
    {
      "mesh": 11,
      "name": ""
    }
  ],
  "scene": 0,
  "scenes": [
    {
      "name": "OSG_Scene",
      "nodes": [
        0
      ]
    }
  ]
}

